HIERARCHY
ROOT Hips
{
	OFFSET 0.00000 0.00000 0.00000
	CHANNELS 6 Xposition Yposition Zposition Yrotation Zrotation Xrotation 
	JOINT Lumbar
	{
		OFFSET 0 0 0
		CHANNELS 3 Zrotation Xrotation Yrotation
		JOINT Neck
		{
			OFFSET 0.00 0.2701 0.00
			CHANNELS 3 Zrotation Xrotation Yrotation
			End Site
			{
				OFFSET 0.00 0.1379 0.00
			}
		}
		JOINT RightShoulder
		{
			OFFSET 0.0119 0.2289 0.1181
			CHANNELS 3 Zrotation Xrotation Yrotation
			JOINT RightElbow
			{
				OFFSET 0.00 -0.1475 0.00
				CHANNELS 2 Zrotation Yrotation
				JOINT RightWrist
				{
					OFFSET 0.00 -0.1605 0.00
					CHANNELS 2 Zrotation Xrotation
					End Site
					{
						OFFSET 0.0040 -0.1068 0.0006
					}
				}
			}
		}
		JOINT LeftShoulder
		{
			OFFSET 0.0119 0.2289 -0.1181
			CHANNELS 3 Zrotation Xrotation Yrotation
			JOINT LeftElbow
			{
				OFFSET 0.00 -0.1475 0.00
				CHANNELS 2 Zrotation Yrotation
				JOINT LeftWrist
				{
					OFFSET 0.00 -0.1605 0.00
					CHANNELS 2 Zrotation Xrotation
					End Site
					{
						OFFSET 0.0040 -0.1068 -0.0006
					}
				}
			}
		}
	}
	JOINT RightHip
	{
		OFFSET 0.0316 -0.0424 0.0458
		CHANNELS 3 Zrotation Xrotation Yrotation
		JOINT RightKnee
		{
			OFFSET 0.00 -0.2438 0.00
			CHANNELS 1 Zrotation
			JOINT RightAnkle
			{
				OFFSET 0.00 -0.2449 0.00
				CHANNELS 3 Zrotation Xrotation Yrotation
				End Site
				{
					OFFSET 0.1237 -0.0542 0.0051
				}
			}
		}
	}
	JOINT LeftHip
	{
		OFFSET 0.0316 -0.0424 -0.0458
		CHANNELS 3 Zrotation Xrotation Yrotation
		JOINT LeftKnee
		{
			OFFSET 0.00 -0.2438 0.00
			CHANNELS 1 Zrotation
			JOINT LeftAnkle
			{
				OFFSET 0.00 -0.2449 0.00
				CHANNELS 3 Zrotation Xrotation Yrotation
				End Site
				{
					OFFSET 0.1237 -0.0542 -0.0051
				}
			}
		}
	}
}
MOTION
Frames: 33
Frame Time: 0.02
0.25426 0.41154 -0.04676 187.20124 0 -5.49271 10.30462 8.19621 -2.7257 -19.51046 1.23789 -1.64851 30.50638 -14.31879 17.80731 136.38318 118.94401 -35.71733 -7.6913 35.65029 10.81799 -21.18713 134.03706 -127.62416 -55.34016 8.36639 72.50988 9.32718 -11.53264 -85.19545 -3.82509 -3.56431 -8.87097 101.32906 -12.72013 16.07694 -67.61019 -16.71884 2.56996 -0.95602
0.25466 0.41121 -0.0464 187.46393 0 -5.51009 10.61743 8.20194 -2.81255 -19.42251 1.07026 -1.85988 30.48482 -14.17766 17.58434 136.38805 119.64202 -36.18933 -7.41547 35.86753 10.82251 -21.5587 134.38009 -126.02145 -55.13354 8.04317 72.95179 8.21499 -11.83144 -86.09721 -3.43841 -3.71253 -9.45074 101.39673 -12.69993 14.67707 -66.83996 -16.73932 2.55751 0.1006
0.25491 0.41099 -0.04594 187.73065 0 -5.49385 10.92956 8.17007 -2.8777 -19.33716 0.92051 -2.02991 30.55276 -14.03069 17.3486 136.35661 121.01889 -36.73579 -6.77132 36.03206 10.78281 -22.12511 134.94349 -123.66098 -54.77588 7.5798 73.43185 6.97318 -12.03156 -87.05242 -3.20731 -3.78933 -9.54748 101.22325 -12.69283 13.12443 -66.08353 -16.62607 2.46006 0.72938
0.25522 0.41072 -0.04553 187.98859 0 -5.49144 11.24116 8.15168 -2.9535 -19.24854 0.77134 -2.20554 30.5808 -13.89673 17.12095 136.3433 122.03787 -37.24041 -6.31748 36.21021 10.76082 -22.57877 135.3869 -121.76613 -54.49773 7.16578 73.89538 5.80444 -12.25487 -87.97456 -2.91547 -3.89747 -9.87458 101.14562 -12.67937 11.60907 -65.36068 -16.59047 2.40521 1.54866
0.25558 0.41045 -0.0451 188.27759 0 -5.49614 11.5561 8.14937 -3.02829 -19.16725 0.58506 -2.43723 30.60463 -13.72064 16.88114 136.32506 123.2341 -37.77726 -5.78286 36.43417 10.74843 -23.13155 135.91095 -119.37315 -54.17081 6.80656 74.35734 4.56991 -12.57251 -88.93739 -2.58034 -4.01234 -10.1669 101.12462 -12.66743 10.22378 -64.46616 -16.48329 2.33452 2.40494
0.25579 0.41022 -0.0447 188.50223 0 -5.47776 11.86415 8.10402 -3.09827 -19.07194 0.48106 -2.54265 30.65895 -13.63059 16.66604 136.30769 124.23505 -38.26684 -5.32209 36.54981 10.70525 -23.5283 136.32208 -117.82053 -53.91325 6.3056 74.83011 3.44389 -12.67086 -89.8283 -2.36855 -4.09634 -10.41378 100.92734 -12.65534 8.5372 -63.94011 -16.49013 2.27637 3.0745
0.25565 0.4101 -0.04435 188.5477 0 -5.40284 12.15124 7.95267 -3.17131 -18.93583 0.59235 -2.30377 30.77422 -13.77583 16.50464 136.30184 124.52212 -38.58823 -5.16534 36.37256 10.59377 -23.40834 136.34813 -118.92427 -53.8519 5.40596 75.3329 2.64995 -12.16721 -90.48997 -2.51156 -4.10206 -10.6384 100.322 -12.64107 6.01206 -64.35235 -16.8867 2.27253 3.33557
0.25535 0.41003 -0.04404 188.5281 0 -5.30599 12.43156 7.75875 -3.23814 -18.78553 0.78695 -1.9402 30.91729 -14.00819 16.3722 136.29782 124.59504 -38.86314 -5.09185 36.08837 10.4519 -23.13074 136.25619 -120.87359 -53.87089 4.37751 75.84297 1.97041 -11.45009 -91.0808 -2.7642 -4.08099 -10.83373 99.54454 -12.62562 3.19911 -65.14957 -17.3951 2.2842 3.42022
0.2551 0.40994 -0.04372 188.53836 0 -5.21955 12.71674 7.58154 -3.30027 -18.64349 0.94858 -1.63734 31.04888 -14.20298 16.23785 136.29249 124.77613 -39.17197 -4.97124 35.85789 10.32024 -22.95152 136.2319 -122.33483 -53.87515 3.43432 76.34384 1.23891 -10.84272 -91.71373 -2.93357 -4.07826 -11.0522 98.83322 -12.61023 0.54473 -65.81839 -17.82559 2.28953 3.58116
0.25494 0.40983 -0.04336 188.54759 0 -5.12966 12.99554 7.41326 -3.39299 -18.49581 1.09112 -1.31595 31.17943 -14.3895 16.05452 136.28787 124.9351 -39.42913 -4.87628 35.60654 10.20217 -22.67015 136.15839 -124.20046 -53.78506 2.3694 76.87254 0.50269 -10.17554 -92.30325 -3.25049 -4.04586 -11.21785 98.16371 -12.59872 -2.23942 -66.28702 -18.36681 2.28944 3.74381
0.25455 0.40977 -0.04308 188.54345 0 -5.04275 13.28454 7.21787 -3.42135 -18.35402 1.29182 -1.00412 31.31667 -14.61345 15.98157 136.28278 125.07985 -39.7822 -4.75364 35.3708 10.04919 -22.55663 136.15356 -125.44376 -53.90891 1.53425 77.34252 -0.19485 -9.58688 -92.9701 -3.28284 -4.07131 -11.48617 97.37028 -12.57691 -4.81065 -67.26908 -18.70434 2.30479 3.86667
0.25355 0.40982 -0.04306 188.51851 0 -4.96463 13.61563 6.94871 -3.26881 -18.25297 1.64288 -0.74935 31.47267 -14.92432 16.19493 136.2752 125.24002 -40.40727 -4.52602 35.23175 9.80718 -22.98776 136.3922 -124.68548 -54.63662 1.32152 77.66433 -0.81159 -9.23786 -93.8286 -2.51323 -4.24933 -12.10261 96.27032 -12.54232 -6.79964 -69.52943 -18.46201 2.36519 3.92213
0.25231 0.40993 -0.04312 188.48239 0 -4.89131 13.9546 6.65564 -3.05278 -18.15433 2.04784 -0.50894 31.63252 -15.26907 16.52028 136.26742 125.38843 -41.12994 -4.27181 35.10747 9.53135 -23.58502 136.69861 -123.28976 -55.57197 1.35205 77.92314 -1.39252 -8.9806 -94.77385 -1.4511 -4.48843 -12.81417 95.05398 -12.4948 -8.5496 -72.30081 -18.00797 2.44019 3.94573
0.25118 0.41001 -0.04313 188.45115 0 -4.81915 14.28237 6.37991 -2.86891 -18.04091 2.42108 -0.26175 31.78569 -15.59502 16.80232 136.26041 125.53876 -41.81149 -4.03598 34.95844 9.27122 -24.07644 136.95612 -122.23963 -56.39091 1.30208 78.20093 -1.99117 -8.70186 -95.70552 -0.51464 -4.71017 -13.44806 93.89641 -12.44263 -10.35809 -74.86885 -17.64721 2.50448 3.9866
0.25003 0.41007 -0.04318 188.41821 0 -4.73219 14.64348 6.07553 -2.67051 -17.98507 2.82682 -0.01025 31.9613 -15.93799 17.0546 136.25055 125.70097 -42.48161 -3.773 34.88087 9.00848 -24.68772 137.28471 -120.98241 -57.30366 1.12582 78.52186 -2.582 -8.33269 -96.52791 0.38886 -4.89106 -14.22971 92.70795 -12.43349 -12.38752 -77.33155 -17.30968 2.58513 4.00971
0.24888 0.41021 -0.04316 188.38736 0 -4.6774 14.93533 5.82548 -2.48779 -17.80966 3.17776 0.22598 32.08997 -16.25291 17.3935 136.24662 125.83273 -43.19455 -3.56328 34.66053 8.74369 -25.0944 137.48458 -119.99436 -58.07178 1.26559 78.73519 -3.17934 -8.17339 -97.59658 1.42983 -5.16684 -14.72203 91.55835 -12.33337 -13.89711 -80.12594 -16.86324 2.63666 4.06404
0.24776 0.41052 -0.04291 188.36198 0 -4.71125 15.04914 5.73361 -2.36078 -17.30754 3.35331 0.43383 32.09428 -16.47734 17.95785 136.25853 125.93243 -44.04284 -3.47116 34.03342 8.4805 -24.86485 137.29775 -119.90076 -58.3673 2.27558 78.68975 -3.82653 -8.59834 -99.3481 2.79763 -5.73213 -14.43266 90.5472 -11.97047 -14.0199 -83.74338 -16.24426 2.58973 4.21839
0.24665 0.4109 -0.04258 188.3399 0 -4.77727 15.09017 5.69706 -2.25246 -16.68471 3.47329 0.62435 32.05001 -16.67268 18.60276 136.27649 125.99451 -44.92348 -3.4389 33.26468 8.21684 -24.42981 136.98226 -120.09619 -58.51316 3.58557 78.53401 -4.47732 -9.22691 -101.33969 4.29056 -6.38208 -13.84191 89.57992 -11.51915 -13.62814 -87.66815 -15.50945 2.51551 4.40491
0.24555 0.41126 -0.04228 188.31878 0 -4.82804 15.15465 5.63385 -2.13759 -16.11404 3.62566 0.81527 32.02369 -16.8842 19.20178 136.29212 126.04159 -45.76259 -3.40372 32.56674 7.95414 -24.11017 136.73595 -120.15897 -58.7428 4.72096 78.41349 -5.11239 -9.74605 -103.20679 5.71466 -6.96682 -13.36218 88.5912 -11.11808 -13.47688 -91.43029 -14.77536 2.46334 4.57391
0.24435 0.41159 -0.04198 188.28724 0 -4.8816 15.26011 5.57605 -2.01199 -15.55321 3.75058 1.03689 32.01462 -17.08509 19.84419 136.30614 126.22042 -46.71815 -3.26922 31.84065 7.68678 -23.70474 136.44703 -120.20789 -58.91625 6.02483 78.35312 -5.8073 -10.34133 -105.1445 7.2001 -7.67051 -12.99344 87.60315 -10.67432 -13.2893 -95.31109 -14.24783 2.3714 4.75462
0.24338 0.41199 -0.04167 188.27782 0 -4.93697 15.26274 5.5206 -1.9144 -14.94523 3.91785 1.19117 31.95843 -17.30001 20.41357 136.32473 126.12012 -47.4378 -3.35103 31.14117 7.42984 -23.42521 136.21504 -120.35956 -59.16461 7.0477 78.14283 -6.37678 -10.82302 -106.98769 8.58281 -8.1408 -12.323 86.62757 -10.29832 -13.05831 -99.00645 -13.27196 2.3551 4.91813
0.24307 0.41253 -0.04132 188.33321 0 -4.98908 14.99981 5.45697 -1.8862 -14.21949 4.2229 1.15867 31.78124 -17.56648 20.76334 136.35591 125.22534 -47.49647 -4.06033 30.5352 7.19894 -23.55827 136.17486 -120.75171 -59.68722 7.20495 77.54043 -6.61743 -10.95987 -108.53889 9.65612 -7.98779 -10.87182 85.66106 -10.13374 -12.83315 -102.1493 -11.03177 2.55704 5.03116
0.24299 0.41313 -0.04095 188.40992 0 -5.04197 14.63577 5.39418 -1.8864 -13.45397 4.57065 1.05993 31.55934 -17.8465 21.03573 136.39082 124.05843 -47.31695 -4.97754 29.96402 6.97939 -23.8212 136.19537 -121.23536 -60.2827 7.0713 76.79304 -6.72851 -10.97153 -109.98071 10.61828 -7.58886 -9.13026 84.7095 -10.03973 -12.5831 -105.08504 -8.357 2.83424 5.12291
0.2428 0.4137 -0.0406 188.47405 0 -5.0947 14.31758 5.33174 -1.87627 -12.71742 4.89412 0.995 31.35901 -18.11683 21.34211 136.42356 123.03619 -47.24643 -5.76964 29.38584 6.75653 -24.01471 136.18585 -121.66214 -60.82468 7.07973 76.11465 -6.88699 -11.02774 -111.4545 11.628 -7.27474 -7.536 83.7606 -9.91207 -12.34598 -108.09117 -5.91637 3.0767 5.22405
0.24264 0.41429 -0.04022 188.55072 0 -5.14766 13.9972 5.26781 -1.85629 -11.9293 5.23716 0.91408 31.14945 -18.40245 21.65725 136.46006 121.91883 -47.17179 -6.69095 28.76359 6.52529 -24.24657 136.18269 -122.16283 -61.45124 7.05531 75.41591 -7.09393 -11.14293 -113.01318 12.65913 -7.07735 -5.86922 82.77091 -9.78903 -12.08465 -111.21172 -3.31126 3.32551 5.33617
0.24246 0.41484 -0.03989 188.60597 0 -5.19998 13.6584 5.20687 -1.86283 -11.24244 5.54917 0.85059 30.95198 -18.65813 21.93356 136.48758 120.94191 -47.0514 -7.39442 28.24565 6.3149 -24.43014 136.18177 -122.52802 -61.91636 7.02848 74.73079 -7.16927 -11.10328 -114.36394 13.61207 -6.57738 -4.28507 81.8721 -9.67295 -11.87365 -114.03669 -0.95407 3.57304 5.40907
0.24213 0.4153 -0.03968 188.59988 0 -5.24929 13.29315 5.15034 -1.93982 -10.83134 5.77456 0.85467 30.77396 -18.84225 22.13012 136.50744 120.36164 -46.83771 -7.42145 27.98846 6.15371 -24.46679 136.17836 -122.49181 -61.95775 7.04367 74.08303 -6.91189 -10.66256 -115.1838 14.42206 -5.30351 -3.03213 81.19569 -9.57088 -11.81811 -116.12674 0.67088 3.85435 5.47554
0.24177 0.41572 -0.03952 188.57104 0 -5.29786 12.91338 5.09712 -2.04166 -10.52702 5.96556 0.87801 30.61415 -18.9932 22.28779 136.51558 119.94108 -46.58933 -7.22576 27.83992 6.01447 -24.44869 136.17491 -122.31502 -61.82832 7.06774 73.46114 -6.52698 -10.07045 -115.79462 15.14775 -3.73502 -1.86908 80.61469 -9.47164 -11.8146 -117.91834 2.01974 4.12281 5.48762
0.24142 0.41615 -0.03934 188.55049 0 -5.34743 12.54071 5.04458 -2.12934 -10.18287 6.16655 0.89058 30.46308 -19.15002 22.45788 136.51615 119.48804 -46.37499 -7.14814 27.65384 5.86842 -24.44381 136.16768 -122.20513 -61.7506 7.10275 72.85154 -6.2008 -9.54887 -116.48818 15.88162 -2.29733 -0.64394 80.00607 -9.36361 -11.78326 -119.82595 3.45595 4.35905 5.45785
0.2411 0.41662 -0.03914 188.53888 0 -5.39465 12.16195 4.98321 -2.23016 -9.79908 6.39352 0.90959 30.2402 -19.3462 22.64948 136.56784 118.86446 -46.08099 -7.00869 27.41624 5.70804 -24.48957 136.17725 -122.08831 -61.78122 7.07033 72.13564 -5.86578 -9.01425 -117.22685 16.73978 -0.85548 0.50667 79.33139 -9.28946 -11.769 -121.81271 5.06848 4.75317 5.698
0.2407 0.41699 -0.03898 188.50353 0 -5.44605 11.79427 4.94059 -2.3091 -9.52558 6.55679 0.92032 30.16975 -19.45231 22.78555 136.51454 118.62718 -45.94052 -6.93988 27.31466 5.58428 -24.41896 136.15261 -121.94829 -61.54914 7.17703 71.64878 -5.5219 -8.47435 -117.82709 17.31935 0.63357 1.78132 78.81698 -9.14475 -11.73115 -123.5622 6.24236 4.82122 5.37634
0.24008 0.41708 -0.03892 188.40347 0 -5.5138 11.45697 4.95265 -2.32144 -9.51557 6.55916 0.90595 30.53409 -19.31737 22.79862 136.13555 119.51176 -46.29947 -7.14189 27.53333 5.54177 -24.00565 136.01968 -121.80455 -60.59366 7.72978 71.7916 -5.17437 -7.94158 -118.06266 17.16038 2.27457 3.46948 78.71946 -8.80266 -11.62315 -124.76506 6.27115 3.93292 3.4045
0.23938 0.41707 -0.03889 188.28117 0 -5.58499 11.13263 4.983 -2.31065 -9.61601 6.4968 0.88216 31.0482 -19.0925 22.75326 135.65746 120.76593 -46.80545 -7.41809 27.89001 5.53803 -23.48152 135.85446 -121.63773 -59.38605 8.41276 72.16332 -4.82515 -7.41267 -118.1721 16.72302 3.93507 5.27429 78.77996 -8.38973 -11.48869 -125.7334 5.86613 2.72737 0.89013
